<svg width="66" height="63" viewBox="0 0 66 63" fill="none" xmlns="http://www.w3.org/2000/svg">
<g clip-path="url(#clip0_437_130)">
<path d="M33 5.25C48.1635 5.25 60.5 17.0257 60.5 31.5C60.5 45.9743 48.1635 57.75 33 57.75C17.8365 57.75 5.5 45.9743 5.5 31.5C5.5 17.0257 17.8365 5.25 33 5.25ZM33 0C14.7758 0 0 14.1041 0 31.5C0 48.8959 14.7758 63 33 63C51.2243 63 66 48.8959 66 31.5C66 14.1041 51.2243 0 33 0ZM33 18.5903C37.4055 18.5903 37.928 18.606 39.6688 18.6821C44.143 18.8764 46.2275 20.9003 46.4338 25.137C46.5107 26.7986 46.5273 27.2948 46.5273 31.5C46.5273 35.7052 46.5107 36.204 46.4338 37.863C46.2275 42.0971 44.1458 44.1263 39.6688 44.3205C37.928 44.394 37.4082 44.4124 33 44.4124C28.5945 44.4124 28.072 44.3966 26.334 44.3205C21.8515 44.1236 19.7753 42.0919 19.569 37.863C19.492 36.204 19.4727 35.7052 19.4727 31.5C19.4727 27.2948 19.492 26.796 19.569 25.137C19.7725 20.8976 21.857 18.8738 26.334 18.6795C28.072 18.6034 28.5945 18.5903 33 18.5903ZM33 15.75C28.5175 15.75 27.9592 15.7684 26.1965 15.8471C20.2015 16.1096 16.874 19.2833 16.599 25.0058C16.5192 26.6884 16.5 27.2239 16.5 31.5C16.5 35.7788 16.5192 36.3143 16.599 37.9943C16.874 43.7141 20.2015 46.893 26.1965 47.1555C27.9592 47.2316 28.5175 47.25 33 47.25C37.4825 47.25 38.0435 47.2316 39.8063 47.1555C45.7903 46.893 49.1315 43.7194 49.401 37.9943C49.4808 36.3143 49.5 35.7788 49.5 31.5C49.5 27.2239 49.4808 26.6884 49.401 25.0058C49.1315 19.2911 45.8013 16.107 39.8063 15.8471C38.0435 15.7684 37.4825 15.75 33 15.75ZM33 23.4124C28.3223 23.4124 24.5272 27.0322 24.5272 31.5C24.5272 35.9678 28.3223 39.5876 33 39.5876C37.6777 39.5876 41.4728 35.9678 41.4728 31.5C41.4728 27.0349 37.6777 23.4124 33 23.4124ZM33 36.75C29.9613 36.75 27.5 34.4006 27.5 31.5C27.5 28.602 29.9613 26.25 33 26.25C36.036 26.25 38.5028 28.5994 38.5028 31.5C38.5028 34.4006 36.036 36.75 33 36.75ZM41.8055 21.2048C40.7137 21.2048 39.8255 22.05 39.8255 23.0948C39.8255 24.1369 40.711 24.9847 41.8055 24.9847C42.9 24.9847 43.7882 24.1395 43.7882 23.0948C43.7882 22.05 42.9027 21.2048 41.8055 21.2048Z" fill="white"/>
</g>
<defs>
<clipPath id="clip0_437_130">
<rect width="66" height="63" fill="white"/>
</clipPath>
</defs>
</svg>
