<svg width="618" height="186" viewBox="0 0 618 186" fill="none" xmlns="http://www.w3.org/2000/svg">
<path d="M110.61 104.294H86.5865L77.0359 80.7937H33.3165L24.2909 104.294H0.867188L43.4665 0.826172H66.8159L110.61 104.294ZM69.9528 63.3565L54.8809 24.96L40.1109 63.3565H69.9528Z" fill="white"/>
<path d="M112.852 104.288V85.4441L170.295 18.3237H119.344V0.820312H199.393V17.053L139.487 86.8554H201.708V104.288H112.852V104.288Z" fill="white"/>
<path d="M215.728 104.288V0.820068H237.813V41.5426H281.082V0.820068H303.167V104.288H281.082V59.046H237.813V104.288H215.728V104.288Z" fill="white"/>
<path d="M354.72 104.288V60.7385L314.658 0.815674H340.545L366.283 41.7493L391.5 0.815674H416.941L376.73 60.8792V104.284H354.72V104.288Z" fill="white"/>
<path d="M427.902 104.288V0.820068H463.34C476.767 0.820068 485.521 1.33743 489.599 2.37215C495.864 3.92424 501.114 7.30157 505.34 12.5C509.566 17.6985 511.679 24.4159 511.679 32.6523C511.679 39.0055 510.459 44.3446 508.022 48.6739C505.585 53.0032 502.487 56.4012 498.734 58.8721C494.98 61.3431 491.161 62.9779 487.28 63.7767C482.008 64.7659 474.374 65.2584 464.377 65.2584H449.979V104.288H427.902V104.288ZM449.987 18.3234V47.6847H462.075C470.777 47.6847 476.596 47.1425 479.532 46.0623C482.467 44.982 484.764 43.2851 486.431 40.9797C488.098 38.6744 488.929 35.9924 488.929 32.9337C488.929 29.1715 487.761 26.0632 485.425 23.6171C483.089 21.171 480.127 19.6396 476.548 19.0312C473.91 18.5593 468.616 18.3234 460.658 18.3234H449.987V18.3234Z" fill="white"/>
<path d="M617.103 104.288H593.08L583.53 80.7876H539.81L530.785 104.288H507.361L549.96 0.820068H573.314L617.103 104.288ZM576.442 63.3504L561.37 24.9539L546.6 63.3504H576.442Z" fill="white"/>
<path d="M43.8569 184.305V137.938H58.6663L67.5607 169.567L76.3544 137.938H91.1988V184.305H82.0069V147.805L72.2769 184.305H62.7482L53.0532 147.805V184.305H43.8569V184.305Z" fill="white"/>
<path d="M101.029 184.305V137.938H137.372V145.781H110.926V156.062H135.531V163.876H110.926V176.495H138.309V184.31H101.029V184.305Z" fill="white"/>
<path d="M146.665 137.938H164.751C168.829 137.938 171.939 138.231 174.079 138.823C176.953 139.626 179.416 141.05 181.468 143.095C183.52 145.139 185.078 147.643 186.149 150.607C187.221 153.57 187.755 157.225 187.755 161.566C187.755 165.382 187.252 168.673 186.25 171.434C185.025 174.807 183.275 177.538 181 179.624C179.285 181.205 176.966 182.439 174.044 183.325C171.861 183.979 168.938 184.305 165.285 184.305H146.661V137.938H146.665ZM156.561 145.781V176.491H163.951C166.716 176.491 168.711 176.342 169.936 176.048C171.541 175.668 172.871 175.026 173.93 174.12C174.989 173.213 175.851 171.723 176.52 169.646C177.189 167.568 177.522 164.737 177.522 161.153C177.522 157.568 177.189 154.816 176.52 152.895C175.851 150.975 174.914 149.481 173.711 148.405C172.508 147.329 170.981 146.6 169.131 146.224C167.748 145.93 165.04 145.781 161.006 145.781H156.561Z" fill="white"/>
<path d="M195.847 184.305V137.938H205.743V184.305H195.847Z" fill="white"/>
<path d="M259.369 184.305H248.602L244.324 173.772H224.732L220.686 184.305H210.186L229.278 137.938H239.743L259.369 184.305ZM241.147 165.958L234.392 148.752L227.773 165.958H241.147Z" fill="white"/>
<path d="M312.462 167.257L322.056 170.134C320.586 175.196 318.141 178.954 314.72 181.408C311.298 183.867 306.958 185.092 301.695 185.092C295.185 185.092 289.839 182.989 285.648 178.78C281.456 174.575 279.361 168.822 279.361 161.525C279.361 153.806 281.465 147.813 285.678 143.546C289.891 139.278 295.43 137.139 302.295 137.139C308.288 137.139 313.162 138.815 316.907 142.167C319.134 144.15 320.81 146.997 321.921 150.706L312.125 152.92C311.543 150.516 310.336 148.62 308.498 147.225C306.661 145.83 304.425 145.139 301.796 145.139C298.165 145.139 295.216 146.373 292.954 148.839C290.692 151.306 289.559 155.304 289.559 160.826C289.559 166.686 290.675 170.862 292.901 173.35C295.128 175.837 298.029 177.083 301.595 177.083C304.224 177.083 306.486 176.293 308.38 174.711C310.279 173.139 311.64 170.651 312.462 167.257Z" fill="white"/>
<path d="M330.549 184.305V137.938H366.892V145.781H340.446V156.062H365.051V163.876H340.446V176.495H367.829V184.31H330.549V184.305Z" fill="white"/>
<path d="M376.32 184.305V137.938H385.949L406.009 168.901V137.938H415.205V184.305H405.274L385.516 154.067V184.305H376.32V184.305Z" fill="white"/>
<path d="M436.703 184.305V145.781H422.16V137.938H461.111V145.781H446.599V184.305H436.703Z" fill="white"/>
<path d="M467.49 184.305V137.938H503.833V145.781H477.386V156.062H501.992V163.876H477.386V176.495H504.77V184.31H467.49V184.305Z" fill="white"/>
<path d="M513.191 184.305V137.938H534.021C539.258 137.938 543.064 138.356 545.44 139.187C547.815 140.019 549.714 141.501 551.14 143.633C552.566 145.764 553.28 148.198 553.28 150.938C553.28 154.419 552.199 157.291 550.038 159.555C547.876 161.823 544.643 163.251 540.343 163.839C542.482 165.018 544.25 166.318 545.641 167.729C547.032 169.141 548.913 171.653 551.276 175.258L557.261 184.305H545.426L538.273 174.215C535.731 170.61 533.995 168.338 533.058 167.398C532.122 166.459 531.129 165.817 530.083 165.469C529.033 165.122 527.375 164.948 525.1 164.948H523.096V184.305H513.191V184.305ZM523.088 157.548H530.411C535.158 157.548 538.125 157.357 539.306 156.976C540.487 156.596 541.41 155.942 542.08 155.015C542.749 154.087 543.081 152.929 543.081 151.534C543.081 149.973 542.64 148.715 541.76 147.755C540.881 146.795 539.638 146.19 538.033 145.938C537.232 145.835 534.821 145.781 530.81 145.781H523.088V157.548V157.548Z" fill="white"/>
</svg>
