<svg width="65" height="64" viewBox="0 0 65 64" fill="none" xmlns="http://www.w3.org/2000/svg">
<g clip-path="url(#clip0_437_132)">
<path fill-rule="evenodd" clip-rule="evenodd" d="M32.5 0C14.5519 0 0 14.328 0 32C0 49.672 14.5519 64 32.5 64C50.4481 64 65 49.672 65 32C65 14.328 50.4481 0 32.5 0ZM32.5 5.33333C47.4338 5.33333 59.5833 17.296 59.5833 32C59.5833 46.704 47.4338 58.6667 32.5 58.6667C17.5662 58.6667 5.41667 46.704 5.41667 32C5.41667 17.296 17.5662 5.33333 32.5 5.33333ZM39.7908 45.0373C40.2269 45.344 40.7875 45.4187 41.2885 45.232C41.7896 45.0453 42.1606 44.624 42.269 44.112C43.4471 38.6667 46.3017 24.8827 47.3715 19.9307C47.4527 19.5573 47.32 19.1707 47.0221 18.92C46.7242 18.672 46.3098 18.6 45.9415 18.7333C40.2648 20.8027 22.7771 27.2613 15.6298 29.8667C15.1748 30.032 14.8796 30.4613 14.8958 30.9333C14.9121 31.4053 15.2344 31.8133 15.6975 31.9493C18.9042 32.8933 23.1129 34.208 23.1129 34.208C23.1129 34.208 25.0765 40.056 26.1029 43.0293C26.2302 43.4 26.5281 43.696 26.9181 43.7947C27.3108 43.896 27.7252 43.792 28.0177 43.52C29.6644 41.9893 32.2102 39.624 32.2102 39.624C32.2102 39.624 37.0473 43.1147 39.7908 45.0373ZM24.8815 33.4693L27.1565 40.8533L27.6602 36.176C27.6602 36.176 36.4433 28.376 41.451 23.928C41.6 23.8 41.619 23.5813 41.4971 23.4267C41.3752 23.2747 41.1558 23.2373 40.9879 23.3413C35.184 26.9893 24.8815 33.4693 24.8815 33.4693Z" fill="white"/>
</g>
<defs>
<clipPath id="clip0_437_132">
<rect width="65" height="64" fill="white"/>
</clipPath>
</defs>
</svg>
