<svg width="65" height="61" viewBox="0 0 65 61" fill="none" xmlns="http://www.w3.org/2000/svg">
<path d="M32.5 5.08333C47.4338 5.08333 59.5833 16.4853 59.5833 30.5C59.5833 44.5148 47.4338 55.9167 32.5 55.9167C17.5662 55.9167 5.41667 44.5148 5.41667 30.5C5.41667 16.4853 17.5662 5.08333 32.5 5.08333ZM32.5 0C14.5519 0 0 13.6564 0 30.5C0 47.3436 14.5519 61 32.5 61C50.4481 61 65 47.3436 65 30.5C65 13.6564 50.4481 0 32.5 0ZM27.0833 20.3333C27.0833 21.749 25.8727 22.8953 24.375 22.8953C22.8773 22.8953 21.6667 21.7516 21.6667 20.3333C21.6667 18.9176 22.8773 17.7713 24.375 17.7713C25.8727 17.7713 27.0833 18.9202 27.0833 20.3333ZM27.0833 25.4167H21.6667V40.6667H27.0833V25.4167ZM35.2083 25.4167H29.7917V40.6667H35.2083V33.395C35.2083 29.0182 40.6304 28.6141 40.6304 33.395V40.6667H46.0417V32.1292C46.0417 23.7824 37.57 24.0874 35.2083 28.1947V25.4167Z" fill="white"/>
</svg>
