<svg width="65" height="64" viewBox="0 0 65 64" fill="none" xmlns="http://www.w3.org/2000/svg">
<path d="M62 32C62 47.9726 48.8364 61 32.5 61C16.1636 61 3 47.9726 3 32C3 16.0274 16.1636 3 32.5 3C48.8364 3 62 16.0274 62 32Z" stroke="white" stroke-width="6"/>
<path d="M45.5923 19.8068C45.3519 19.6825 45.1178 19.5463 44.891 19.3986C44.2314 18.9625 43.6266 18.4487 43.0897 17.8682C41.7463 16.3311 41.2446 14.7718 41.0598 13.68H41.0672C40.9129 12.7738 40.9767 12.1875 40.9863 12.1875H34.8677V35.847C34.8677 36.1646 34.8677 36.4786 34.8544 36.7888C34.8544 36.8274 34.8507 36.863 34.8484 36.9046C34.8484 36.9216 34.8484 36.9395 34.8447 36.9573C34.8447 36.9617 34.8447 36.9662 34.8447 36.9706C34.7802 37.8195 34.5081 38.6396 34.0523 39.3586C33.5965 40.0777 32.971 40.6737 32.2307 41.0942C31.4593 41.5331 30.5867 41.7633 29.6991 41.7622C26.8484 41.7622 24.538 39.4377 24.538 36.5669C24.538 33.6961 26.8484 31.3716 29.6991 31.3716C30.2388 31.3711 30.7751 31.456 31.2882 31.6232L31.2956 25.3932C29.738 25.192 28.1556 25.3158 26.6483 25.7568C25.1409 26.1978 23.7413 26.9463 22.5378 27.9553C21.4832 28.8716 20.5966 29.9649 19.9179 31.186C19.6596 31.6313 18.6851 33.4207 18.5671 36.3249C18.4929 37.9733 18.9879 39.6811 19.2239 40.3869V40.4018C19.3723 40.8174 19.9475 42.2357 20.8849 43.4314C21.6408 44.3905 22.5338 45.233 23.5353 45.9318V45.917L23.5501 45.9318C26.5122 47.9446 29.7964 47.8125 29.7964 47.8125C30.3649 47.7895 32.2693 47.8125 34.4321 46.7875C36.8308 45.6512 38.1964 43.9583 38.1964 43.9583C39.0689 42.9468 39.7626 41.794 40.2479 40.5495C40.8015 39.094 40.9863 37.3484 40.9863 36.6507V24.0989C41.0606 24.1434 42.0491 24.7973 42.0491 24.7973C42.0491 24.7973 43.4734 25.7102 45.6955 26.3046C47.2897 26.7277 49.4376 26.8168 49.4376 26.8168V20.7427C48.685 20.8243 47.1569 20.5868 45.5923 19.8068Z" fill="white"/>
</svg>
