<svg width="64" height="61" viewBox="0 0 64 61" fill="none" xmlns="http://www.w3.org/2000/svg">
<path d="M43.28 18.0509C37.9413 17.7053 26.048 17.7078 20.7173 18.0509C14.944 18.4271 14.2667 21.7516 14.2213 30.5C14.2667 39.2332 14.9413 42.5729 20.72 42.9491C26.0507 43.2922 37.944 43.2948 43.2827 42.9491C49.056 42.5729 49.736 39.2459 49.7813 30.5C49.7333 21.7668 49.0587 18.4271 43.28 18.0509ZM26.6667 36.1476V24.8524L39.408 30.4898L26.6667 36.1476ZM32 5.08333C46.704 5.08333 58.6667 16.4853 58.6667 30.5C58.6667 44.5148 46.704 55.9167 32 55.9167C17.296 55.9167 5.33333 44.5148 5.33333 30.5C5.33333 16.4853 17.296 5.08333 32 5.08333ZM32 0C14.328 0 0 13.6564 0 30.5C0 47.3436 14.328 61 32 61C49.672 61 64 47.3436 64 30.5C64 13.6564 49.672 0 32 0V0Z" fill="white"/>
</svg>
